#!OML:ASF E:\id_vita\Project 1\Capture day 1\Session 1\Female.ASF
:FULLY-SPECIFIED
:DEGREES
951
root 32.9495 16.9406 -9.67927 -152.006 66.95 182.617
lowerback -14.2537 1.39614 -5.83102
upperback -6.7003 3.07151 -0.21099
thorax 0.613402 1.87178 3.50161
lowerneck -0.245209 -0.616858 -7.03176
upperneck -10.3739 -0.367765 4.73947
head -3.32304 0.0272466 2.83494
rclavicle -4.82053e-015 -6.75868e-015
rhumerus 56.7076 -6.81784 -51.5099
rradius 79.0811
rwrist -22.0465
rhand -51.0985 18.2625
rfingers 7.12502
rthumb -23.6431 -10.3037
lclavicle -4.82053e-015 -6.75868e-015
lhumerus 80.8715 0.587699 37.3066
lradius 35.0892
lwrist -21.7527
lhand -25.8383 26.029
lfingers 7.12502
lthumb 0.701921 56.0076
rfemur -10.9115 4.71111 24.1761
rtibia 18.7118
rfoot 4.28837 -6.22039
rtoes -14.576
lfemur -39.9803 -12.6216 -10.1565
ltibia 19.1764
lfoot -17.8314 -1.45637
ltoes -17.0225
952
root 32.952 16.9407 -9.68369 -152.053 66.8603 182.571
lowerback -14.3139 1.41193 -5.7859
upperback -6.71162 3.09137 -0.142531
thorax 0.630107 1.88278 3.5533
lowerneck -0.368361 -0.662463 -7.11091
upperneck -10.1084 -0.444137 4.65349
head -3.20272 -0.0105073 2.81549
rclavicle 6.24184e-014 2.66371e-014
rhumerus 56.858 -6.7641 -53.012
rradius 80.2469
rwrist -22.5317
rhand -51.7438 16.9761
rfingers 7.12502
rthumb -24.2619 -11.5088
lclavicle 6.24184e-014 2.66371e-014
lhumerus 80.9173 0.514322 37.7043
lradius 35.2236
lwrist -20.8589
lhand -25.1524 26.2451
lfingers 7.12502
lthumb 1.36433 56.2205
rfemur -10.8523 4.76164 24.1844
rtibia 18.6678
rfoot 4.35604 -6.38151
rtoes -15.0817
lfemur -39.9667 -12.7057 -10.1554
ltibia 19.0739
lfoot -17.1809 -2.14343
ltoes -14.6736
953
root 32.9675 16.9385 -9.68333 -152.598 67.0116 181.938
lowerback -14.5184 1.44004 -6.16462
upperback -6.74746 3.19934 -0.147448
thorax 0.666335 1.94871 3.78409
lowerneck -0.849218 -0.691433 -7.66387
upperneck -9.43216 -0.453088 5.10557
head -2.88705 -0.0189457 3.05953
rclavicle 2.25869e-014 2.60408e-014
rhumerus 56.8722 -6.72115 -54.4864
rradius 80.826
rwrist -22.6481
rhand -52.7976 17.7516
rfingers 7.12502
rthumb -25.2719 -10.5946
lclavicle 2.25869e-014 2.60408e-014
lhumerus 81.1859 0.279187 38.4946
lradius 35.6935
lwrist -18.5968
lhand -23.1523 27.2748
lfingers 7.12502
lthumb 3.29605 57.2291
rfemur -10.7941 5.59338 23.8857
rtibia 18.6011
rfoot 4.74541 -7.03824
rtoes -15.0833
lfemur -39.9673 -12.7974 -10.3647
ltibia 19.0004
lfoot -16.4526 -2.76162
ltoes -12.0326
954
root 32.9694 16.9401 -9.68701 -152.656 67.0581 181.927
lowerback -14.4743 1.56347 -6.08917
upperback -6.78777 3.35095 -0.122168
thorax 0.586929 2.02835 3.78479
lowerneck -0.787933 -0.879434 -7.75328
upperneck -9.39223 -0.73254 4.90288
head -2.86397 -0.151388 3.01077
rclavicle -4.50123e-014 4.57205e-015
rhumerus 57.0027 -6.64174 -55.767
rradius 80.8088
rwrist -22.5728
rhand -53.7217 19.7102
rfingers 7.12502
rthumb -26.1569 -8.50788
lclavicle -4.50123e-014 4.57205e-015
lhumerus 81.3258 0.0173346 39.0859
lradius 35.1097
lwrist -19.9065
lhand -23.885 27.3041
lfingers 7.12502
lthumb 2.58838 57.2682
rfemur -10.7102 5.84986 23.8366
rtibia 18.5745
rfoot 4.84361 -7.16231
rtoes -14.715
lfemur -39.8833 -12.9113 -10.3507
ltibia 18.9049
lfoot -15.6933 -3.37365
ltoes -9.18281
955
root 32.9727 16.9403 -9.691 -152.383 67.0665 182.214
lowerback -14.5828 1.66687 -5.92622
upperback -6.77201 3.47255 -0.0212274
thorax 0.652264 2.08504 3.82219
lowerneck -0.365095 -0.969185 -6.72677
upperneck -9.85397 -0.940866 3.70905
head -3.07701 -0.248688 2.42543
rclavicle -7.23079e-015 3.20043e-014
rhumerus 57.3367 -6.30376 -56.8064
rradius 80.2182
rwrist -22.3921
rhand -54.7982 20.6444
rfingers 7.12502
rthumb -27.1871 -7.41691
lclavicle -7.23079e-015 3.20043e-014
lhumerus 81.4525 -0.125855 39.8149
lradius 34.7069
lwrist -20.7572
lhand -24.1689 27.1951
lfingers 7.12502
lthumb 2.31425 57.1623
rfemur -10.6453 5.9773 23.9295
rtibia 18.4605
rfoot 4.92756 -7.26842
rtoes -14.2571
lfemur -39.9058 -12.9267 -10.2457
ltibia 18.9208
lfoot -14.8997 -3.99612
ltoes -6.11326
956
root 32.9709 16.9457 -9.70311 -152.715 67.2565 181.679
lowerback -14.8122 1.76041 -5.98172
upperback -6.78874 3.62725 -0.0990231
thorax 0.74148 2.16293 3.80506
lowerneck -0.889853 -0.907044 -7.12221
upperneck -9.21346 -0.839399 3.82123
head -2.7696 -0.198529 2.51745
rclavicle -1.65985e-014 5.36719e-015
rhumerus 57.795 -5.99293 -57.7878
rradius 79.1793
rwrist -21.5161
rhand -55.6228 19.2843
rfingers 7.12502
rthumb -27.9757 -8.651
lclavicle -1.65985e-014 5.36719e-015
lhumerus 81.5246 -0.224845 40.1241
lradius 34.7509
lwrist -20.4178
lhand -23.9111 27.3582
lfingers 7.12502
lthumb 2.56325 57.3226
rfemur -10.7677 5.59608 23.5838
rtibia 18.3331
rfoot 4.81888 -6.81249
rtoes -13.7471
lfemur -40.1461 -12.952 -10.5488
ltibia 19.0464
lfoot -14.1107 -4.56198
ltoes -3.22672
957
root 32.9905 16.9472 -9.69722 -152.361 67.2296 182.233
lowerback -14.8832 1.92087 -5.88588
upperback -6.70226 3.82601 -0.0501203
thorax 0.852553 2.25239 3.83772
lowerneck -0.800629 -1.27877 -7.08188
upperneck -9.37909 -1.35557 3.58079
head -2.80986 -0.44485 2.44036
rclavicle 4.6938e-014 -1.53064e-014
rhumerus 57.8724 -5.68669 -57.9514
rradius 78.844
rwrist -20.8437
rhand -57.0247 15.5344
rfingers 7.12502
rthumb -29.3151 -12.1747
lclavicle 4.6938e-014 -1.53064e-014
lhumerus 81.7406 -0.459268 40.2405
lradius 34.6921
lwrist -20.2726
lhand -24.0406 27.5142
lfingers 7.12502
lthumb 2.43817 57.48
rfemur -10.4844 5.86903 23.8715
rtibia 18.189
rfoot 4.98776 -6.91521
rtoes -13.4667
lfemur -40.0477 -12.8877 -10.3657
ltibia 19.223
lfoot -13.6467 -5.13621
ltoes -0.765336
958
root 32.9875 16.9557 -9.71333 -152.297 67.358 182.205
lowerback -14.9867 2.04213 -5.58253
upperback -6.84438 3.96656 -0.191307
thorax 0.776019 2.32649 3.53998
lowerneck -1.04833 -1.02283 -6.63006
upperneck -8.47177 -1.03046 3.52681
head -2.47677 -0.322133 2.31676
rclavicle 4.1956e-014 2.82274e-014
rhumerus 57.9288 -5.10757 -57.6978
rradius 78.0547
rwrist -20.375
rhand -57.9522 11.9048
rfingers 7.12502
rthumb -30.2003 -15.646
lclavicle 4.1956e-014 2.82274e-014
lhumerus 81.6374 -0.740897 40.1673
lradius 34.464
lwrist -20.5277
lhand -24.4785 27.822
lfingers 7.12502
lthumb 2.01527 57.7923
rfemur -10.5933 3.90837 23.7699
rtibia 18.068
rfoot 4.10572 -5.07417
rtoes -13.2672
lfemur -40.1557 -13.0095 -10.4138
ltibia 19.3845
lfoot -13.2601 -5.30599
ltoes 0.83991
959
root 32.997 16.9536 -9.71954 -152.138 67.4304 182.366
lowerback -15.1558 2.06165 -5.44034
upperback -6.98665 3.99484 -0.13055
thorax 0.71831 2.35111 3.53259
lowerneck -1.08477 -0.850156 -7.07368
upperneck -7.87442 -0.80762 3.86802
head -2.28681 -0.223907 2.50212
rclavicle 5.23052e-014 2.76311e-014
rhumerus 57.9645 -4.45224 -57.2798
rradius 76.2281
rwrist -20.063
rhand -57.4237 11.265
rfingers 7.12502
rthumb -29.696 -16.3769
lclavicle 5.23052e-014 2.76311e-014
lhumerus 81.2704 -0.959084 40.1212
lradius 34.3516
lwrist -20.3924
lhand -24.6231 28.1609
lfingers 7.12502
lthumb 1.87559 58.1324
rfemur -10.5105 4.00448 23.8045
rtibia 17.9639
rfoot 4.06157 -5.13911
rtoes -13.1264
lfemur -40.1779 -13.0586 -10.3353
ltibia 19.582
lfoot -12.8132 -5.36944
ltoes 2.09243
960
root 33.0062 16.9502 -9.7206 -152.166 67.5026 182.363
lowerback -15.2998 2.071 -5.49482
upperback -7.0624 4.02963 -0.0305243
thorax 0.698748 2.37868 3.67853
lowerneck -0.134133 -0.858151 -6.55769
upperneck -8.40581 -0.920723 3.14821
head -2.62757 -0.27663 2.18588
rclavicle 3.22342e-014 6.4605e-015
rhumerus 57.8851 -3.83258 -56.5
rradius 74.143
rwrist -19.7845
rhand -55.901 9.96322
rfingers 7.12502
rthumb -28.2416 -17.9284
lclavicle 3.22342e-014 6.4605e-015
lhumerus 81.0785 -1.12642 40.3285
lradius 34.2589
lwrist -20.1891
lhand -24.4789 28.2915
lfingers 7.12502
lthumb 2.01489 58.2617
rfemur -10.3677 6.11874 23.7333
rtibia 18.0057
rfoot 4.89745 -7.03984
rtoes -13.0326
lfemur -40.1387 -13.0647 -10.3846
ltibia 19.6584
lfoot -12.2699 -5.43942
ltoes 3.13725
961
root 32.9948 16.9546 -9.74305 -152.479 67.7246 182.073
lowerback -15.3036 2.27199 -5.35675
upperback -7.06792 4.27731 -0.0304837
thorax 0.680629 2.50057 3.6361
lowerneck -0.749879 -1.01632 -7.42904
upperneck -7.59585 -1.09054 3.67722
head -2.23873 -0.363631 2.50718
rclavicle 1.85118e-014 -1.24116e-014
rhumerus 57.9188 -3.27772 -54.908
rradius 72.1346
rwrist -19.7278
rhand -54.1233 6.59079
rfingers 7.12502
rthumb -26.5414 -21.5698
lclavicle 1.85118e-014 -1.24116e-014
lhumerus 81.1816 -1.33817 41.1391
lradius 34.1219
lwrist -20.2771
lhand -24.2152 28.4143
lfingers 7.12502
lthumb 2.2695 58.382
rfemur -10.4256 4.17973 23.4942
rtibia 18.0773
rfoot 3.99381 -5.21658
rtoes -12.6165
lfemur -40.0789 -13.1061 -10.6997
ltibia 19.7057
lfoot -11.9072 -5.30739
ltoes 3.35986
962
root 32.9994 16.9537 -9.74867 -152.984 67.9875 181.626
lowerback -15.3207 2.20191 -5.55625
upperback -7.19345 4.22147 -0.0208321
thorax 0.545448 2.48995 3.74516
lowerneck 0.089657 -1.08178 -6.8601
upperneck -8.0504 -1.25503 3.27333
head -2.53192 -0.451434 2.28721
rclavicle -4.67107e-014 -1.95741e-014
rhumerus 58.0546 -2.10996 -53.3936
rradius 69.882
rwrist -19.2837
rhand -52.4538 1.93567
rfingers 7.12502
rthumb -24.9424 -26.4566
lclavicle -4.67107e-014 -1.95741e-014
lhumerus 80.687 -1.39545 41.0684
lradius 34.2629
lwrist -19.6379
lhand -23.7472 28.6541
lfingers 7.12502
lthumb 2.72151 58.6165
rfemur -10.29 5.19712 23.1954
rtibia 18.1298
rfoot 4.43463 -5.9648
rtoes -12.8932
lfemur -39.9624 -13.143 -10.9937
ltibia 19.7808
lfoot -11.7271 -5.11414
ltoes 3.58584
963
root 33.0002 16.9554 -9.75098 -153.124 68.1005 181.553
lowerback -15.1964 2.21163 -5.54883
upperback -7.32927 4.23225 -0.002401
thorax 0.333598 2.5101 3.74722
lowerneck 0.733668 -1.09151 -6.50879
upperneck -8.32949 -1.33192 2.89151
head -2.73967 -0.490222 2.11037
rclavicle -1.50129e-014 -1.20575e-014
rhumerus 58.15 -1.10831 -51.418
rradius 67.0069
rwrist -18.3689
rhand -50.6102 -2.83482
rfingers 7.12502
rthumb -23.1746 -31.4607
lclavicle -1.50129e-014 -1.20575e-014
lhumerus 80.4333 -1.49871 40.8301
lradius 34.3677
lwrist -18.6543
lhand -23.2605 28.7556
lfingers 7.12502
lthumb 3.19153 58.7114
rfemur -10.2687 4.2089 23.1522
rtibia 18.1887
rfoot 3.97608 -5.05423
rtoes -12.8193
lfemur -39.8866 -13.2083 -11.0513
ltibia 19.8646
lfoot -11.4834 -5.04173
ltoes 3.49043
964
root 33.0021 16.9585 -9.75252 -153.004 68.1257 181.71
lowerback -15.0566 2.27935 -5.36102
upperback -7.48051 4.29736 -0.0532263
thorax 0.112262 2.55236 3.5815
lowerneck 0.516689 -0.971994 -6.62964
upperneck -7.72356 -1.16688 3.06661
head -2.50539 -0.424761 2.17558
rclavicle 2.61552e-014 -9.68454e-015
rhumerus 58.183 -0.227313 -49.385
rradius 64.2522
rwrist -17.5007
rhand -50.4264 -4.03231
rfingers 7.12502
rthumb -22.9983 -32.6803
lclavicle 2.61552e-014 -9.68454e-015
lhumerus 80.3988 -1.71697 40.4781
lradius 34.3115
lwrist -18.0645
lhand -23.1454 28.358
lfingers 7.12502
lthumb 3.3027 58.3122
rfemur -10.1865 4.72405 23.1963
rtibia 18.1476
rfoot 4.22331 -5.45211
rtoes -13.4522
lfemur -39.9156 -13.2419 -11.0081
ltibia 20.0157
lfoot -11.25 -5.0013
ltoes 2.96295
965
root 33.0129 16.9602 -9.75401 -153.268 68.3395 181.478
lowerback -15.19 2.31488 -5.56926
upperback -7.46094 4.38138 -0.0562282
thorax 0.177879 2.59795 3.71558
lowerneck -0.819259 -0.720298 -7.50457
upperneck -6.26492 -0.720777 4.13711
head -1.81275 -0.225509 2.65496
rclavicle 4.27193e-014 4.09372e-014
rhumerus 58.3668 0.601262 -47.0767
rradius 63.3846
rwrist -17.4685
rhand -55.5276 3.53212
rfingers 7.12502
rthumb -27.8847 -24.418
lclavicle 4.27193e-014 4.09372e-014
lhumerus 80.3886 -1.79264 40.2115
lradius 34.2832
lwrist -17.6783
lhand -23.0374 27.981
lfingers 7.12502
lthumb 3.40699 57.9335
rfemur -10.0444 5.93929 23.0174
rtibia 18.089
rfoot 4.72952 -6.37872
rtoes -14.2025
lfemur -39.8919 -13.2132 -11.1839
ltibia 20.2119
lfoot -11.158 -4.78253
ltoes 2.80347
